<?xml version="1.0" encoding="utf-8"?>
<!-- Generator: Adobe Illustrator 24.3.0, SVG Export Plug-In . SVG Version: 6.00 Build 0)  -->
<svg version="1.1" id="Layer_1" xmlns="http://www.w3.org/2000/svg" xmlns:xlink="http://www.w3.org/1999/xlink" x="0px" y="0px"
	 viewBox="0 0 360 360" style="enable-background:new 0 0 360 360;" xml:space="preserve">
<style type="text/css">
	.st0{fill:#FFFFFF;}
	.st1{fill:#EB2329;}
</style>
<polygon class="st0" points="268.2,217.3 268.2,204.7 268.2,205.7 "/>
<polygon points="98.6,97.3 98.6,97.3 98.7,97.3 "/>
<path class="st1" d="M161.7,65.4c-1.8-1.3-3.8-2.2-6-2.6c-6-1-12.3,1.7-16.9,7.4c-0.9,1.1-1.6,2.2-2.4,3.3
	c-13.9,5.6-26.7,13.7-37.8,23.8h-0.1c-1.3,1.2-2.5,2.3-3.7,3.6C46.5,149.3,46.6,227.7,95,276s126.8,48.2,175.1-0.2
	c13.2-13.3,23.3-29.4,29.4-47.1l-5.7-0.2c-22.2,61.5-90,93.4-151.5,71.2s-93.4-90-71.2-151.5c10.8-30,33.3-54.4,62.3-67.6
	c-0.4,1.4-0.6,2.8-0.8,4.2c-0.1,1.2-0.2,2.4-0.2,3.6c0,1.1,0.1,2.2,0.2,3.3c-6.2,3.9-12,10.4-12,20.9c0,6.9,2.2,13.5,6.3,19
	c-1.3,0.4-2.6,0.9-3.8,1.4l-0.3,0.1l0,0c-3.9,1.6-7.7,3.6-11.2,5.9c-4.5,2.9-8.6,6.4-12.1,10.5l-0.1,0.2l-0.1,0.2
	c-0.1,0.2-0.1,0.4-0.1,0.6v0.1l0,0c0,0.2,0,0.5,0.1,0.7l0.1,0.2c0,0.1,0.1,0.2,0.2,0.3c3.8,4.9,8.3,9.3,13.4,13v5.2l0.1,0.1v-5.2
	c3.2,2.4,6.7,4.5,10.3,6.4l0,0h0.1c0.2,0.1,0.4,0.2,0.7,0.3l0,0c4.9,2.6,10.1,4.4,15.6,5.2c1.9,0.3,3.8,0.5,5.8,0.5h1.1
	c1.6,0,3.3-0.1,4.9-0.3c0.9-0.1,1.9-0.2,2.8-0.4h0.3l0.6-0.1c1.4-0.3,2.9-0.6,4.3-1c1.1-0.3,2.1-0.6,3.2-1c2.1-0.7,4.1-1.6,6.1-2.7
	c0.4-0.2,0.8-0.5,1.2-0.8c0.5-0.4,0.9-0.7,1.4-1.1c0.2-0.1,0.3-0.2,0.5-0.4l0,0c0.3-0.3,1.4-1.1,1.4-1.4l0,0l3.2-1.3v-19.6l0,0v-0.5
	c0.1-0.6,0.7-0.9,1.3-0.8c0.5,0.1,0.8,0.5,0.8,1v19l5.3-2.1c-0.3-0.5-0.6-1-0.9-1.5v-6l10.1-0.4l1.2,3.8l4.1-1.7l-0.7-2.3l6.9-0.3
	l0.1,0.1l12.6-5.1l-6.6,0.3l15.1-18.7c3,0.6,6,1.5,8.8,2.6L226,147l7.5-3l5.4-7.6l0,0c2.1,0.9,4,1.9,5.8,2.9l-0.1,0.2
	c2.1-0.7,4.1-1.3,6.1-1.9c-6.7-4.3-14-7.5-21.7-9.4c4.2-3.6,6.6-8.8,6.7-14.3c0-8.4-5.4-13.9-8-16.2c0.8-1.9,1.2-3.9,1.3-6
	c0.1-1.7-0.1-3.5-0.6-5.1c-0.4-1.4-0.9-2.8-1.6-4.1c-1-1.9-2.3-3.7-3.8-5.2c28.6,10.4,52.1,31.4,65.6,58.7c2.3,0.4,4.6,1,6.9,1.8
	C278.9,101.1,245.6,74.7,206,67c-3.4-4.3-7.9-7.5-13.1-9.2c-3-0.9-6.1-1.4-9.2-1.4c-3.3,0-6.7,0.4-9.9,1.4
	C169.1,59.1,164.9,61.7,161.7,65.4z M142.3,72.9c3.6-4.4,8.4-6.6,12.7-5.8c2,0.3,3.9,1.3,5.2,2.9l0.1,0.1c0.5,0.6,1,1.3,1.4,2
	c-0.9,0.5-1.7,1.1-2.5,1.8c-1.1,1-1.9,2.3-2.4,3.8c-3.8,2.3-7.2,5.2-10,8.7c-3.4,0.7-6.7,1.8-9.9,3.2
	C136.6,83.5,138.5,77.6,142.3,72.9z M125.1,112.6L125.1,112.6c0-7.8,3.8-13.9,11.4-18.1c2.2-1.2,4.5-2.2,6.9-2.9
	c-1,1.9-1.7,3.8-2.3,5.9c-2.6,9.4-0.7,19.8,5.6,31c-0.4,0-0.7,0-1.1,0c-1.1,0-2.2,0-3.3,0.1h-0.5h-0.2l-0.7,0.1
	c-3.1,0.1-6.2,0.6-9.2,1.5C127.4,125.2,125.1,119,125.1,112.6z M147.4,132.3c1.2,0,2.5,0.1,3.7,0.4l0.7,1.6l8,16.9l-4.2-0.2
	l-2.1-0.1l0,0l-2.9-3.6L139,132.9C141.8,132.5,144.6,132.4,147.4,132.3L147.4,132.3z M128.4,135.3c2-0.7,4-1.2,6.1-1.7l0,0l13.7,17
	l0,0l-3.4-0.1l-8.4-0.4l-9.9-14.1C127,135.8,127.7,135.6,128.4,135.3L128.4,135.3z M118.4,139.7c1.3-0.7,2.7-1.4,4.2-2.1l8.6,12.4
	l-2.7-0.1l-5.9-0.3l-4.5-8.1l-0.7-1.3L118.4,139.7z M108.9,146.1l0.3-0.2c0.9-0.7,1.9-1.5,3-2.3c0.6-0.4,1.2-0.8,1.8-1.2l0,0
	l2.8,5.1l1.1,2l0,0l-12.2-0.5l0,0C106.5,148,107.6,147.1,108.9,146.1L108.9,146.1z M112.8,159.6c-2-1.7-3.8-3.3-5.2-4.8
	c-0.7-0.7-1.3-1.4-1.9-2l6.3,0.3l5.5,0.2l0,0l-4,5.4L112.8,159.6z M123.7,166.9c-2.5-1.3-4.9-2.8-7.2-4.5L116,162l0.4-0.6l6-7.9
	l7.6,0.3l1.8,0.1L123.7,166.9z M139.4,172.4v0.1c-4.2-0.7-8.2-2-12-3.9l9-14.4l12.8,0.6L139.4,172.4z M154.7,171.6
	c-0.1,0.2-0.1,0.4-0.1,0.7c-2.6,0.5-5.3,0.8-8,0.8c-0.3,0-0.7,0-1,0c-0.6,0-1.3,0-1.9-0.1l10-18.1l6.3,0.3L154.7,171.6z
	 M173.2,161.3c0,0.4-0.7,1.2-0.9,1.5c-0.3,0.5-0.7,1-1.1,1.4c-1.2,1.4-2.5,2.6-4,3.6c-0.3,0.2-0.5,0.3-0.8,0.5
	c-1.8,0.9-3.6,1.7-5.6,2.4c-0.4,0.1-1.4,0.7-1.8,0.6l5-15.9l9.1,0.4L173.2,161.3z M173.2,151.8L173.2,151.8l-8.8-0.4l-1.5-3.2
	l-6.6-13.9l0,0c7.5,3,14.4,8.7,16.7,10.7l0.2,0.2L173.2,151.8z M177.5,141.4L177.5,141.4c-0.7,0-1.3,0.1-1.9,0.4
	c-1.5-1.8-7-7.6-17.7-10.9c-1.9-0.7-3.8-1.3-5.8-1.8c-7-11.3-9.4-21.5-6.9-30.5c1.8-6.1,5.6-11.4,10.7-15.2
	c-0.7,6.3-0.2,12.6,1.6,18.7c0,0.1,0.1,0.3,0.1,0.4c1.3,4.3,3.4,8.4,6.1,12c8.7,11.4,22.1,15.9,29.2,17.5c-4.8,2.8-9.3,6.1-13.4,9.8
	C178.9,141.6,178.2,141.4,177.5,141.4L177.5,141.4z M164,106.8c4,1.9,8.4,2.9,12.8,3l0,0c4,0,7.9-0.9,11.5-2.6
	c11.1-5.3,17.8-17.2,18.6-24c4,3.2,10.4,10.3,10.4,23.4c0,9.4-3,16.3-8.7,19.8l0,0c-1.1,0.2-2.2,0.4-3.3,0.6h-0.2
	c-1.9,0.5-3.8,1.1-5.7,1.9l-0.8-0.2h-0.1h-0.1c-0.2,0-20.1-2.4-31.1-16.7C166,110.3,164.9,108.6,164,106.8z M192.8,151.5l-9.7,0.4
	v-7.3c2.3-2,10.1-8.5,18.6-12L192.8,151.5z M204.8,150.9l-7,0.3l9.6-20.4c1.3-0.3,2.7-0.4,4.1-0.4c3.1,0,6.2,0.2,9.3,0.6
	L204.8,150.9z M231.2,113.8c-0.1,5.6-3.3,10.6-8.2,13.2c-2.5-0.4-5-0.6-7.5-0.8c3.4-3.8,6.3-10,6.3-19.7c0-0.4,0-0.8-0.1-1.1
	c1.4-1.1,2.6-2.4,3.7-3.8C227.5,103.5,231.1,107.8,231.2,113.8L231.2,113.8z M218,78.6c4.2,3.6,6.6,8.3,6.4,12.9
	c-0.1,3-1.3,6-3.3,8.2c-2.5-15-12.8-21.3-15-22.5c-0.4-1-1-1.9-1.8-2.7c-0.2-0.3-0.5-0.5-0.8-0.8C208.3,74,213.9,75.1,218,78.6z
	 M202.5,82.4c-0.4,4.9-6.2,16-16.1,20.8c-7.7,3.7-16,2.8-24.8-2.7c-1.1-3.9-1.6-8-1.5-12.1l0,0c3.4,2.8,8.9,6.4,14.6,6.6
	c3.7,0.2,7.2-1.2,9.9-3.8c7.5-7.1,9.7-13.3,10.4-16.6c1.8,0.3,4.4,1,6.1,2.8C202.2,78.8,202.7,80.6,202.5,82.4L202.5,82.4z
	 M183.6,60.6L183.6,60.6c7.2-0.1,14.1,3.1,18.6,8.7c-3.3-0.1-6.5,0.2-9.8,0.8l-0.1,0.1l-0.2,0.1l-0.1,0.1l0,0
	c-0.1,0.1-0.3,0.1-0.4,0.2l-0.1,0.1c-1.1,1.1-2.3,2.1-3.6,3c-1.9-4.6-5.4-7.3-9.9-7.3c-4.5-0.1-8.8,1.9-11.5,5.4
	c-0.4-1.1-1-2.2-1.7-3.3C166.8,66.1,172.4,60.6,183.6,60.6z M184,76.2c-2.6,1.5-5.6,2.1-8.6,1.8c-2.2-0.3-4.3-1.3-6-2.8
	c1.8-2.9,5.1-4.6,8.5-4.5C181.4,70.8,183.1,73.4,184,76.2L184,76.2z M174.8,82.3c0.7,0.1,1.5,0.2,2.2,0.2c3.9,0,7.9-1.4,12-4.2
	c-1.9,3.7-4.5,7-7.6,9.8c-1.7,1.7-4.1,2.7-6.6,2.6c-6.2-0.2-12.4-5.9-14.4-7.8c0.1-1.1,0.3-2.2,0.5-3.4c0.2-0.9,0.6-1.7,1.2-2.4l0,0
	c0.5-0.5,1.1-0.9,1.8-1.2C166.6,79.3,170.5,81.6,174.8,82.3L174.8,82.3z"/>
<path class="st0" d="M198.5,194.7l0.2,0.6L198.5,194.7z"/>
<path class="st0" d="M150.6,250.9l-2.5,0.8l21.1-6.7l-2.5,0.8L150.6,250.9z"/>
<path d="M284.3,135.3c-12.5-23.8-32.9-42.5-57.6-52.9c0.7,1.3,1.2,2.7,1.6,4.1c22.3,10.1,40.7,27.1,52.4,48.6l-13.2-0.7h-0.1
	c-3.6,0.4-7.3,0.9-10.9,1.7c-1.9,0.4-3.9,0.9-6,1.4s-4.1,1.1-6.1,1.9c-2.9,1-5.7,2.2-8.5,3.5l-2.5,1l-7.5,3l-8.7,3.5l-12.6,5.1
	l-6.2,2.6l-4.1,1.7l-10.4,4.2l-5.3,2.1l-2.2,0.9l-3.2,1.3l0,0c0,0.3-1.1,1.1-1.4,1.4l0,0c-0.2,0.1-0.3,0.3-0.5,0.4
	c-0.5,0.4-0.9,0.8-1.4,1.1c-0.4,0.3-0.8,0.5-1.2,0.8l65.3-26.3v4c-8.7,2.7-19.3,6.5-30.3,10.8h-0.1c-0.2,0-0.5,0.1-0.6,0.3
	c-12.3,4.8-25.3,10.1-37,15.1c-11.4,4.8-21.6,9.3-29.1,12.5l-8.9,3.9l-2.4,1v-2.7l32.9-14.4l1-0.4c-1.4,0.4-2.9,0.7-4.3,1l-0.6,0.1
	h-0.3c-0.9,0.1-1.9,0.3-2.8,0.4l-27.6,12.1v-8.5l-5.4-0.5V177H113v-6.8V170v-5.2c-5-3.7-9.5-8.1-13.4-13c-0.1-0.1-0.1-0.2-0.2-0.3
	l-0.1-0.2c-0.1-0.2-0.1-0.5-0.1-0.7l0,0v-0.1c0-0.2,0.1-0.4,0.1-0.6l0.1-0.2l0.1-0.2c3.5-4.1,7.5-7.6,12.1-10.5l-5.1-0.7v-1.5
	l-0.8-0.1v-21h-0.4v-8c8-7.7,17.2-14.2,27.1-19.2c0-1.2,0.1-2.4,0.2-3.6C75.5,112.5,51.4,181.1,79,238.3c25.5,53,87,78.2,142.4,58.3
	l0.5-0.1v-0.1c3.6-1.3,7.1-2.8,10.6-4.5l2.6-0.9v-0.4c25.5-13.1,45.2-35.3,55.2-62.2l3.7,0.1l5.7,0.2l12,0.3l3,0.1l-0.1,0.1h0.1
	v-0.3v-0.7l0.3-7.4l0,0v-0.4l1.2-14.3c0.6-4.7,1-9.4,1-14.2c0.1-5.4-0.5-10.7-1.8-15.9l-1.6-27.9l-0.3-0.2c-2.5-2.2-5.3-4.2-8.2-5.8
	c-3.1-1.8-6.4-3.3-9.9-4.4c-2.2-0.8-4.5-1.3-6.9-1.8C287.2,135.6,285.8,135.4,284.3,135.3z M99.5,113.6c1.3-1.4,2.6-2.8,4-4.2
	l0.3-0.3v6.5h-0.2v20.8l-3.1-0.3l-0.6,0.4v-18.3h-0.4L99.5,113.6z M98,118.2h-0.2v19.7l-1.9,1.3v1.7l-4.7,2.6v34.4l-1.8-0.2
	l-5.3,2.6v51.5l-4,1.3C63,193.7,70,147.9,98.1,115.4L98,118.2L98,118.2z M204.4,161.9c10.8-4.2,21-7.9,29.6-10.5l-0.1,18.7
	c-1.5,3.7-2.5,7.6-2.8,11.6c-1,8.8-1.1,23.6-1.1,30.8c0,1.6,0,2.8,0,3.5l-25.6,8.2L204.4,161.9z M183.1,170.4
	c6.5-2.7,13.1-5.3,19.6-7.8v62.2c-6.1,2-12.8,4.1-19.6,6.3V170.4z M125.4,195.1L125.4,195.1l0.6-0.2l0,0l2.9-1.3l0,0l11.2-4.9
	c3.9-1.7,8.4-3.6,13.2-5.7l0,0l2-0.9l0,0c7.9-3.4,16.8-7.1,25.9-10.9v60.6c-12.2,4-24.7,8.1-35,11.5c-9.4,3.1-16.9,5.6-20.7,7.1
	L125.4,195.1z M137.7,257.4c-0.7,1.3-1.2,2.7-1.4,4.2s-0.2,3.6-0.2,6.5V280c-0.1,3,0.2,6,0.8,8.9c0.2,0.7,0.4,1.3,0.7,1.9
	c-2.5-1.1-5-2.3-7.4-3.6v-28.1l8.1-2.5C138,256.9,137.8,257.1,137.7,257.4z M158.3,297.5c-3.4-0.7-6.7-1.6-10-2.7
	c1.2-0.3,2.3-0.9,3.3-1.7c1.5-1.2,2.5-2.8,3-4.6c0.6-2.9,0.8-5.9,0.7-8.9V278h-8.1v5.1c0.1,1.4,0,2.8-0.3,4.2
	c-0.2,0.7-0.9,1-1.6,0.8c-0.4-0.1-0.7-0.4-0.8-0.8c-0.2-1.3-0.3-2.6-0.3-3.8v-18.7c-0.1-1.3,0-2.7,0.3-4c0.1-0.6,0.7-1,1.3-0.9
	c0.5-0.1,1,0.3,1.1,0.8c0.2,1.3,0.3,2.5,0.3,3.8v7h8.1v-3.8c0.1-2.8-0.2-5.6-0.7-8.3c-0.8-2.9-3.1-5.2-6.1-5.9l9.8-3V297.5z
	 M168.7,299.3c-0.8-0.1-1.6-0.2-2.4-0.3v-19.8h2.4V299.3z M168.7,270.3h-2.4V248l2.4-0.7V270.3z M148.1,251.7l2.5-0.8l16.1-5.1
	l2.5-0.8L148.1,251.7z M179.7,300.1c-1,0-1.9-0.1-2.9-0.1v-55.3l2.9-0.9V300.1z M188.5,300v-58.8l6.4-1.9c-0.7,0.6-1.3,1.4-1.7,2.2
	c-0.8,1.4-1.3,2.9-1.4,4.5c-0.2,1.6-0.2,3.9-0.2,7.1v30.5c-0.1,3.2,0.2,6.4,0.8,9.6c0.4,2,1.6,3.8,3.2,5c0.6,0.5,1.3,0.8,2,1.1
	C194.5,299.6,191.5,299.8,188.5,300L188.5,300z M212.9,296c-1.6,0.4-3.2,0.9-4.9,1.3c1.2-1.2,2.1-2.7,2.6-4.4
	c0.5-1.9,0.7-13.8,0.7-18.3v-1.7h-8.4V287c0.1,1.5,0,3.1-0.3,4.6c-0.2,0.7-0.9,1.1-1.6,0.9c-0.5-0.1-0.8-0.5-0.9-0.9
	c-0.2-1.4-0.3-2.8-0.3-4.1v-38c-0.1-1.4,0-2.9,0.3-4.3c0.1-0.6,0.7-1.1,1.3-1c0.5-0.1,1,0.3,1.2,0.8c0.2,1.4,0.3,2.7,0.3,4.1v16.3
	h8.4v-4.9c0-4.1-0.2-15-0.8-17c-1-3.7-4.1-6.3-7.9-6.7l14.6-4.4L212.9,296z M221.9,293l0.4-15h3.1l0.4,13.4
	C224.6,292,223.3,292.5,221.9,293L221.9,293z M222.2,269.2c0.2-4.4,0.8-14.5,1.7-24.1c0.4,7.5,0.8,17.6,1.3,24.1H222.2z M211,231.7
	c-3.5,1.1-7.2,2.2-11.1,3.3l-0.5,0.1V235l-9.3,2.8c-21,6.3-44.5,13.6-59.3,18.8l0,0c-1.5,0.5-4,1.5-5.3,2v-6.5l5.2-1.8
	c17.8-5.9,73.5-24.1,92.7-30.4l6.5-2.1l0,0v8l0,0l-1.5,0.4C224.4,227.6,218.8,229.3,211,231.7L211,231.7z M234.6,287.3l-4.6-58.7
	l-0.4,0.1l5.5-1.7l5.6,0.1c-0.5,0.3-1.1,0.7-1.5,1.1c-1.5,1.3-2.6,3.1-3,5c-0.4,2.9-0.6,5.8-0.5,8.7v19.9c0,2.9,0.1,10.3,0.2,11.7
	c0.2,1.4,0.6,2.8,1.2,4.1c0.7,1.3,1.7,2.5,2.9,3.3c1,0.7,2.1,1.1,3.2,1.3C240.5,284,237.6,285.7,234.6,287.3L234.6,287.3z
	 M231.7,217.6h2c0,0,0,6.7,0,7.3c0,0-0.1,0-0.2,0l-0.4,0.1l-1.4,0.4C231.7,225.4,231.8,217.7,231.7,217.6L231.7,217.6z M251.7,223.1
	v1.4H241v-4.6h9.1v3.2L251.7,223.1L251.7,223.1z M261.4,267.5c-1.8,1.8-3.6,3.5-5.5,5.1v-20.4h-10.2v6.4h1.8v8
	c0.1,1.1,0,2.2-0.4,3.2c-0.1,0.6-0.7,1-1.3,1s-1-0.4-1.2-0.9c-0.3-1-0.4-2-0.3-3v-29.1c-0.1-1.1,0-2.2,0.3-3.2
	c0.2-0.5,0.6-0.8,1.1-0.8c0.6,0,1.1,0.3,1.2,0.9c0.2,1.2,0.3,2.5,0.2,3.8v7.6h8.8v-4.8c0.1-2.9-0.2-5.8-0.8-8.6
	c-0.6-1.9-1.7-3.5-3.3-4.7c-0.2-0.2-0.5-0.4-0.8-0.5l10.3,0.3c-0.4,0.4-0.7,0.8-0.9,1.3c-0.7,1.2-1.1,2.6-1.2,4s-0.2,3.9-0.2,7.4
	v5.9c0,3.6,0.1,6.1,0.2,7.5s0.5,2.7,1.2,3.9c0.6,1.2,1.6,2.1,2.8,2.7c1.2,0.6,2.5,0.9,3.9,0.9h0.1
	C265.4,263.4,263.5,265.5,261.4,267.5L261.4,267.5z M268.1,250.8c0.1,1.3,0,2.6-0.2,3.9c0,0.5-0.4,0.8-0.9,0.8
	c-0.4,0-0.8-0.3-0.9-0.7c-0.2-1.2-0.2-2.5-0.2-3.8v-16.1c-0.1-1.1,0-2.2,0.3-3.2c0.1-0.3,0.5-0.5,0.8-0.5c0.4,0,0.8,0.3,0.9,0.7
	c0.2,1,0.2,2.1,0.2,3.1L268.1,250.8z M275.1,250.9c0-1.3,0-2.8,0-4.7v-5.9c0-3.6-0.1-6.1-0.2-7.5s-0.5-2.8-1.2-4
	c-0.2-0.3-0.4-0.6-0.6-0.9l13.7,0.4C283.8,236.3,279.9,243.8,275.1,250.9L275.1,250.9z M310.5,227.2l-3.1-0.1L305,227l-0.7-0.1
	c0-0.4,0-1,0-1.6l1.6,0.1v-2.8l4.8,0.3L310.5,227.2z M313.3,228H312l0.1-6.4l-7.5-0.4v2.8l-53.2-2.2v-3.2h-11.6v5.9
	c0,0-3.4,0.1-4.2,0h-0.1c0.1,0,0-7,0-7h2.2h1.8c8,0,18.3,0.3,28.7,0.8l0,0c6.2,0.3,12.4,0.6,18.2,0.9c7.7,0.4,14.7,0.8,19.7,1.1
	l5.9,0.4l1.7,0.1L313.3,228z M268.1,205.7v-1v12.6l0,0V205.7z M284.6,196.9c-1.9,0.8-3.9,1.2-5.9,1.3h-0.3c-0.2,0-0.4,0-0.6,0
	c-3-0.2-6-0.9-8.7-2.3v-1.8c2.9,1.3,6,2.1,9.1,2.1h0.4c0.6,0,1.3-0.1,1.9-0.2c0.5-0.1,0.9-0.2,1.4-0.3c0.8-0.2,1.5-0.4,2.3-0.6
	l0.5-0.1c0.9-0.3,1.8-0.7,2.6-1.1v1.8C286.4,196.2,285.5,196.6,284.6,196.9L284.6,196.9z M287.2,197.2v20.3l-1.1-0.1l-1.3-0.1
	c-5-0.3-10.4-0.5-15.8-0.8v-19.2c2.5,1.2,5.1,1.9,7.8,2.1c0.5,0,1,0.1,1.5,0.1h0.3C281.4,199.5,285.5,198.1,287.2,197.2L287.2,197.2
	z M284.6,193.6c-1.9,0.8-3.9,1.2-6,1.3h-0.4c-2.8-0.1-5.5-0.7-8.1-1.8L270,193c-0.3-0.2-0.6-0.3-0.9-0.4l-0.1-39.2
	c2-0.1,4-0.2,5.8-0.2c3,0,7.9,0.4,10.2,0.6l1.3,0.1l0.8,0.1h0.1v38.3C286.4,192.9,285.5,193.3,284.6,193.6L284.6,193.6z
	 M306.3,144.9c1.6,1,2.8,1.9,3.8,2.6c0.7,0.5,1.2,1,1.5,1.2l0.2,0.2l1.6,27.3v0.1l0,0c1.2,5.1,1.8,10.3,1.7,15.6l0,0
	c0,3.9-0.2,7.3-0.5,9.9c-0.1,1.3-0.2,2.3-0.3,3c0,0.4-0.1,0.6-0.1,0.8s0,0.3,0,0.3l0,0l0,0l-0.6,7.5v-33.7c0-0.5-0.4-0.9-0.9-0.9
	s-0.9,0.4-0.9,0.9v39.2c-3.9-0.2-12.5-0.8-23-1.4v-10.9h2.8v-33.1H289c0-1.7,0-8.3,0-13.6c0-1.9,0-3.6,0-4.8c0-0.6,0-1.1,0-1.5
	c0-0.2,0-0.3,0-0.4V153v0v-0.1c0-0.1-0.1-0.1-0.2-0.2c-1.7-0.5-3.4-0.8-5.2-0.9c-2.3-0.2-5.3-0.4-8.8-0.4c-2.1,0-4.3,0.1-6.7,0.2
	h-0.5h-0.4v21.5h-2.7v33.3h2.8v9.9c-10.1-0.4-20.1-0.7-27.9-0.7c-1.4,0-2.8,0-4,0v-39.4c0-0.5-0.4-0.9-0.9-0.9s-0.9,0.4-0.9,0.9
	v39.5c-0.7,0-1.3,0.1-1.9,0.1h-0.1v-0.2l0,0c0-0.7,0-1.8,0-3.1c0-7.2,0.1-22,1.1-30.6l0,0v-0.1l0,0c0.3-3.8,1.2-7.6,2.7-11.1v-0.1
	v-0.1l0.1-20.1v-0.2V150v-5.2l0.8-0.4c2.6-1.2,5.2-2.3,7.9-3.3h1.7C254.2,141.4,287.5,142.5,306.3,144.9L306.3,144.9z M289,205.4
	v-30.6h1.5v30.6H289z M267.4,205.2v0.2h-1.5v-30.8h1.5V204V205.2z M302.6,142.6c-17.2-1.8-42.2-2.8-52.9-3.1
	c2.5-0.7,4.9-1.2,7.2-1.7c3.1-0.6,5.8-1,7.6-1.3c1-0.1,1.7-0.2,2.2-0.3l0.6-0.1h0.1l16.2,0.8C290.3,137.6,296.8,139.5,302.6,142.6
	L302.6,142.6z"/>
<path class="st1" d="M248.2,194.1c-0.2,0-0.4,0-0.6,0.1c-0.7,0.2-1.3,0.5-1.8,1.1c-1.3,1.6-1.3,4,0,5.7c0.5,0.5,1.1,0.9,1.8,1.1
	c0.2,0,0.4,0.1,0.6,0.1c0.9,0,1.8-0.4,2.4-1.1c1.3-1.6,1.3-4,0-5.7C250,194.5,249.1,194.1,248.2,194.1z"/>
<path class="st1" d="M306.8,200.6c0-1-0.3-1.9-1-2.6c-0.6-0.7-1.4-1.1-2.2-1.1c-0.3,0-0.6,0.1-0.8,0.1c-0.5,0.2-1,0.5-1.4,0.9
	c-1.3,1.5-1.3,3.7,0,5.3c0.6,0.7,1.4,1,2.2,1.1c0.3,0,0.6-0.1,0.9-0.2c0.5-0.2,1-0.5,1.3-0.9C306.5,202.5,306.8,201.5,306.8,200.6z"
	/>
<path d="M246.3,148.4c1.1,0,2-0.9,2-2s-0.9-2-2-2s-2,0.9-2,2S245.2,148.4,246.3,148.4z"/>
<path d="M255,148.4c1.1,0,2-0.9,2-2s-0.9-2-2-2s-2,0.9-2,2S253.9,148.4,255,148.4z"/>
<path d="M298.6,150.7c1,0,1.8-0.9,1.8-1.9l0,0c0-0.2,0-0.4-0.1-0.6c-0.3-0.9-1.2-1.5-2.1-1.2c-0.6,0.2-1.1,0.6-1.2,1.2
	c-0.1,0.2-0.1,0.4-0.1,0.6C296.8,149.9,297.6,150.7,298.6,150.7L298.6,150.7z"/>
<path d="M305.6,151.2c0.9-0.1,1.6-0.9,1.6-1.8c0-0.2,0-0.3-0.1-0.5c-0.1-0.8-0.8-1.4-1.7-1.3c-0.7,0.1-1.2,0.6-1.3,1.3
	c0,0.2-0.1,0.3-0.1,0.5C304,150.4,304.7,151.2,305.6,151.2L305.6,151.2z"/>
<path d="M228.7,156.2c-0.3-0.3-0.7-0.5-1.1-0.5c-0.2,0-0.4,0-0.6,0.1l-18.6,7c-0.4,0.2-0.8,0.5-1.1,0.9s-0.4,0.9-0.4,1.4l0,0
	l0.1,25.7c0,0.4,0.1,0.8,0.4,1.1c0.3,0.3,0.7,0.5,1.1,0.5c0.2,0,0.4,0,0.6-0.1l18.6-7c0.5-0.2,0.8-0.5,1.1-0.9s0.4-0.9,0.4-1.4l0,0
	l-0.1-25.7C229.1,156.9,228.9,156.5,228.7,156.2z"/>
<path d="M199.8,167.5c-0.1-0.2-0.2-0.3-0.4-0.4c-0.2-0.1-0.4-0.2-0.6-0.2c-0.1,0-0.3,0-0.4,0.1l-12.4,4.4c-0.2,0.1-0.4,0.2-0.6,0.4
	c-0.2,0.2-0.4,0.5-0.5,0.8s-0.2,0.6-0.2,0.9l0,0l0.1,25.3c0,0.4,0.1,0.7,0.3,1.1c0.1,0.2,0.2,0.3,0.4,0.4c0.2,0.1,0.4,0.2,0.6,0.2
	c0.1,0,0.3,0,0.4-0.1l12.4-4.3c0.2-0.1,0.4-0.2,0.6-0.4c0.2-0.2,0.4-0.5,0.5-0.8s0.2-0.6,0.2-0.9l0,0l-0.1-25.3
	C200,168.2,199.9,167.9,199.8,167.5z M198.5,194.7L198.5,194.7l0.2,0.6L198.5,194.7z"/>
<path d="M158.4,210.6c0.2,0.3,0.6,0.5,1,0.5c0.2,0,0.4,0,0.6-0.1l17.5-7.2l-0.3-0.7l0.3,0.7c0.4-0.2,0.8-0.5,1-0.9
	c0.3-0.4,0.4-0.8,0.4-1.3l0,0l-0.2-24.6c0-0.4-0.1-0.7-0.4-1c-0.3-0.3-0.6-0.5-1-0.5c-0.2,0-0.4,0-0.6,0.1l-17.5,7.3
	c-0.4,0.2-0.8,0.5-1,0.9c-0.3,0.4-0.4,0.8-0.4,1.3l0,0l0.2,24.6C158,210,158.1,210.3,158.4,210.6z"/>
<path d="M150.9,213.6l0.3,0.7c0.4-0.2,0.8-0.5,1.1-0.9s0.4-0.8,0.5-1.3l0,0l0,0l-0.2-24.1c0-0.4-0.2-0.7-0.4-1
	c-0.3-0.3-0.6-0.4-1-0.4c-0.2,0-0.5,0.1-0.7,0.1l-19.6,8.1c-0.4,0.2-0.8,0.5-1.1,0.9s-0.4,0.9-0.5,1.3l0,0l0.2,24.1
	c0,0.4,0.2,0.7,0.4,1c0.3,0.3,0.6,0.4,1,0.4c0.2,0,0.5,0,0.7-0.1l19.6-8.1L150.9,213.6z"/>
<path d="M269.8,149l16.8,0.8c0.6,0,1-0.4,1.1-0.9c0-0.1,0-0.1,0-0.2v-2.2c0-0.6-0.4-1.1-1-1.2l-16.8-0.8c-0.6,0-1,0.4-1.1,0.9v0.1
	v2.2C268.8,148.4,269.2,148.9,269.8,149z"/>
<path class="st0" d="M141.6,128.6h0.5H141.6z"/>
<path d="M296.2,182.5l11.5,0.6c0.9,0,1.7-0.7,1.8-1.6v-0.1V158c0-1-0.8-1.8-1.8-1.9l-11.5-0.5c-0.9,0-1.7,0.7-1.8,1.6v0.1v23.3
	C294.4,181.6,295.2,182.4,296.2,182.5z"/>
<path d="M242.8,155.5v23.4c0.1,1.1,1,1.9,2.1,1.9l13.5,0.6c1,0.1,2-0.6,2.1-1.7v-0.1v-23.5c-0.1-1.1-1-1.9-2.1-1.9l-13.5-0.6
	C243.8,153.6,242.9,154.4,242.8,155.5C242.8,155.4,242.8,155.5,242.8,155.5z"/>
<path d="M283.3,157.7l-10.3-0.5c-0.8,0-1.5,0.6-1.6,1.5v0.1v20.8c0,0.9,0.7,1.6,1.6,1.7l10.3,0.5c0.8,0,1.6-0.6,1.6-1.5v-0.1v-20.8
	C284.9,158.6,284.2,157.8,283.3,157.7z"/>
<g>
	<path d="M49.7,119.4c-4.8-2.3-7.6-1.2-9.5,2.8l-1.8,3.7l13.3,6.4l1.8-3.7C55.4,124.6,54.6,121.7,49.7,119.4z M51.8,127.4l-0.8,1.8
		l-9.5-4.5l0.8-1.8c1.2-2.5,2.7-3.1,6.4-1.3C52.5,123.4,52.9,125,51.8,127.4z"/>
	<polygon points="64.8,108.7 63,107.5 59.6,112.8 56.1,110.5 58.9,106.1 57.1,104.9 54.3,109.4 50.9,107.2 54.2,102 52.4,100.9 
		47.8,108.1 60.2,116 	"/>
	<polygon points="70.6,100.9 62.3,94 62.4,93.9 72.5,98.6 73.9,96.9 67.6,87.7 67.6,87.7 75.9,94.6 77.4,92.7 66.1,83.3 64,85.9 
		70.6,95.5 70.6,95.6 59.9,90.7 57.8,93.3 69,102.7 	"/>
	<path d="M87.2,83.4c2.8-2.5,2.7-5.6-0.8-9.4c-3.5-3.9-6.5-4.3-9.3-1.7s-2.8,5.6,0.7,9.4C81.4,85.6,84.4,86,87.2,83.4z M78.6,73.9
		c1.7-1.5,3.4-1.2,6.1,1.7c2.6,2.9,2.7,4.7,1.1,6.2s-3.4,1.2-6.1-1.7C77,77.2,76.9,75.4,78.6,73.9z"/>
	<path d="M101.9,71.8c1.7-1.2,2.5-2.6,2.4-4.6l-2.1-0.2c0.1,1.3-0.5,2.3-1.6,3c-1.7,1.2-3.6,0.8-5.9-2.4c-2.3-3.2-1.9-5.2-0.2-6.4
		c1.1-0.7,2.2-1,3.4-0.4l0.5-2c-1.8-0.7-3.4-0.5-5.1,0.7c-3,2.1-3.5,5.2-0.5,9.5C95.8,73.2,98.9,73.9,101.9,71.8z"/>
	<path d="M114.1,64.1l-2.3-4.3l2.2-1.2c0.2-0.1,0.4-0.3,0.6-0.4l4.2,3.4l2.2-1.1l-4.8-3.7c0.9-1.4,1-3,0-4.9
		c-1.5-2.9-4.1-3.4-6.8-1.9l-4.4,2.3l6.9,13L114.1,64.1z M108.2,53l2.2-1.2c1.3-0.7,2.6-0.8,3.7,1.1c1.1,2,0.2,3-1.1,3.7l-2.2,1.2
		L108.2,53z"/>
	<path d="M129.7,56.7l-0.3-3.2l5.1-1.9l1.9,2.6l2.3-0.9l-9.2-12.3l-3.2,1.2l1,15.3L129.7,56.7z M129,44l4.3,5.9l-4,1.5l-0.6-7.3
		L129,44z"/>
	<polygon points="144.1,38.9 147.1,51.1 149.4,50.5 146.4,38.3 149.8,37.5 149.3,35.4 140.1,37.6 140.7,39.7 	"/>
	<rect x="158.7" y="33.6" transform="matrix(0.9887 -0.1496 0.1496 0.9887 -4.3284 24.3986)" width="2.4" height="14.7"/>
	<path d="M175.6,46.9c2.1-0.1,3.5-0.9,4.5-2.6l-1.7-1.3c-0.6,1.2-1.6,1.7-2.9,1.7c-2,0.1-3.5-1.2-3.7-5.1c-0.2-3.9,1.1-5.4,3.2-5.5
		c1.3-0.1,2.4,0.3,3.1,1.4l1.5-1.4c-1.2-1.6-2.6-2.2-4.7-2.1c-3.6,0.2-5.7,2.6-5.5,7.8C169.6,45,171.9,47.1,175.6,46.9z"/>
	<path d="M202.9,46c-1.3-0.2-2.6-1-3.3-2.6l-1.9,0.9c0.6,2.1,2.6,3.6,4.8,3.9c2.8,0.4,5.4-1,5.7-3.5c0.4-2.7-2-3.9-4.4-5.2
		c-1.8-1-2.2-1.6-2.1-2.5c0.2-1.2,1.4-1.6,2.6-1.5c1.2,0.2,2.2,0.8,3,2.3l1.8-1c-0.5-1.4-2-3.1-4.6-3.5c-2.7-0.4-4.9,1-5.3,3.3
		c-0.3,2,1.1,3.5,3.7,4.8c1.8,1,2.9,1.7,2.7,3C205.7,45.9,204.1,46.2,202.9,46z"/>
	<path d="M220.1,51.8c3.7,1,6.2-0.7,7.5-5.7c1.4-5,0.1-7.7-3.6-8.7c-3.7-1-6.2,0.7-7.5,5.7C215.1,48,216.4,50.8,220.1,51.8z
		 M218.8,43.6c1-3.8,2.5-4.8,4.7-4.3c2.2,0.6,2.9,2.2,1.8,6c-1,3.8-2.5,4.9-4.6,4.3C218.5,49.1,217.7,47.5,218.8,43.6z"/>
	<path d="M237.8,57.9c1.9,0.8,3.5,0.7,5.2-0.4l-1-1.9c-1,0.8-2.2,0.8-3.4,0.3c-1.9-0.8-2.7-2.6-1.1-6.3c1.5-3.6,3.4-4.4,5.2-3.6
		c1.2,0.5,2,1.3,2.2,2.6l2-0.6c-0.4-2-1.4-3.2-3.4-4c-3.4-1.4-6.3-0.1-8.3,4.7C233.3,53.5,234.4,56.5,237.8,57.9z"/>
	<rect x="245.8" y="55.7" transform="matrix(0.4714 -0.8819 0.8819 0.4714 83.6203 253.319)" width="14.7" height="2.4"/>
	<path d="M259,68.8l2.5-2.1l4.5,3.1l-1,3.1l2.1,1.4l4.6-14.6l-2.8-1.9L257,67.4L259,68.8z M268.7,60.6l0.3,0.2l-2.3,6.9l-3.6-2.4
		L268.7,60.6z"/>
	<polygon points="280.5,82.6 276,78.7 284.2,69.2 282.4,67.6 272.8,78.7 279.1,84.2 	"/>
	<rect x="282.9" y="83.7" transform="matrix(0.7187 -0.6954 0.6954 0.7187 22.5909 225.7396)" width="14.7" height="2.4"/>
	<path d="M295.5,99c-0.8-1-1.2-2.5-0.6-4.1l-1.9-0.7c-1,1.9-0.6,4.4,0.9,6.1c1.8,2.2,4.6,3,6.6,1.3c2.1-1.7,1.2-4.2,0.4-6.8
		c-0.6-1.9-0.5-2.7,0.2-3.3c1-0.8,2.2-0.2,2.9,0.7c0.8,1,1.1,2,0.6,3.7l2,0.5c0.6-1.4,0.7-3.6-0.9-5.7c-1.7-2.1-4.3-2.7-6.1-1.2
		c-1.6,1.3-1.6,3.3-0.6,6.1c0.7,2,1,3.2-0.1,4C297.6,100.9,296.3,99.9,295.5,99z"/>
	<polygon points="302.9,112.8 304.2,114.9 314.8,108.2 316.7,111.2 318.5,110.1 313.5,102.1 311.7,103.2 313.6,106.2 	"/>
	<path d="M324.9,121.9c-1.2-2.4-3.5-3.6-5.6-2.6c-1.9,0.9-2.3,2.8-2,5.8c0.2,2.1,0.2,3.3-1,3.9c-1.4,0.7-2.5-0.5-3-1.6
		c-0.5-1.2-0.6-2.7,0.4-4.2l-1.7-1.1c-1.4,1.7-1.6,4.1-0.6,6.2c1.2,2.6,3.8,3.9,6.1,2.8c2.5-1.2,2.2-3.8,2-6.5
		c-0.2-2,0.1-2.8,0.9-3.1c1.1-0.5,2.2,0.3,2.7,1.4s0.6,2.2-0.2,3.8l1.8,1C325.4,126.4,326,124.3,324.9,121.9z"/>
	<path d="M116.3,308.9c-3.4-1.8-6.2-0.7-8.6,3.9c-2.4,4.6-1.8,7.5,1.6,9.3c3.4,1.8,6.2,0.7,8.6-3.9
		C120.3,313.6,119.6,310.7,116.3,308.9z M115.7,317.1c-1.9,3.5-3.5,4.2-5.5,3.1s-2.3-2.8-0.5-6.3c1.9-3.5,3.5-4.2,5.5-3.1
		C117.2,311.9,117.6,313.6,115.7,317.1z"/>
	<polygon points="122.4,328.3 124.6,329.2 126.9,323.2 131.9,325.1 132.6,323.1 127.7,321.2 129.2,317.5 134.9,319.7 135.7,317.7 
		127.7,314.6 	"/>
	<path d="M155.4,323l-7,13.7l2.4,0.4l1.4-2.9l5.4,1l0.3,3.2l2.4,0.4l-1.7-15.2L155.4,323z M153.3,332.3l3.2-6.5l0.3,0.1l0.7,7.2
		L153.3,332.3z"/>
	<polygon points="175.7,336.7 175.6,336.7 173,325.3 169.7,325.1 169,339.8 171.4,339.9 171.9,329.2 171.9,329.2 174.4,340.1 
		176.6,340.2 180.1,329.6 180.1,329.6 179.6,340.3 182,340.4 182.7,325.7 179.3,325.6 	"/>
	<polygon points="193.6,337.7 193.2,333.5 198.5,333.1 198.3,331 193.1,331.4 192.7,327.4 198.9,326.9 198.7,324.8 190.2,325.4 
		191.4,340.1 200,339.4 199.8,337.2 	"/>
	<path d="M216.3,326.7c-0.6-3.2-3-4.4-6-3.8l-4.9,1l2.8,14.4l2.4-0.5l-0.9-4.8l2.5-0.5c0.2,0,0.5-0.1,0.7-0.2l3,4.4l2.4-0.5
		l-3.5-4.9C216.1,330.4,216.7,328.8,216.3,326.7z M211.8,330.4l-2.5,0.5l-1.1-5.4l2.5-0.5c1.5-0.3,2.8-0.1,3.2,2.2
		C214.4,329.4,213.2,330.1,211.8,330.4z"/>
	<rect x="224.2" y="319.3" transform="matrix(0.9579 -0.2871 0.2871 0.9579 -84.2924 78.4546)" width="2.4" height="14.7"/>
	<path d="M241.4,326.7c-1.9,0.8-3.7,0-5.2-3.6c-1.5-3.7-0.7-5.5,1.2-6.2c1.2-0.5,2.3-0.5,3.4,0.3l1-1.9c-1.6-1.1-3.2-1.2-5.2-0.5
		c-3.4,1.4-4.6,4.3-2.6,9.2c2,4.8,4.9,6.1,8.3,4.7c1.9-0.8,3-2,3.4-4l-2-0.6C243.4,325.4,242.6,326.2,241.4,326.7z"/>
	<path d="M250.2,308.5l3.3,15l2.2-1.2l-0.7-3.1l4.8-2.7l2.3,2.3l2.2-1.2l-11-10.7L250.2,308.5z M254.4,317l-1.7-7.1l0.3-0.2l5.2,5.1
		L254.4,317z"/>
</g>
</svg>
